<?xml version="1.0" encoding="UTF-8" standalone="no"?>
<!DOCTYPE svg PUBLIC "-//W3C//DTD SVG 1.1//EN"
 "http://www.w3.org/Graphics/SVG/1.1/DTD/svg11.dtd">
<!-- Generated by graphviz version 2.38.0 (20140413.2041)
 -->
<!-- Title: G Pages: 1 -->
<svg width="2132pt" height="871pt"
 viewBox="0.00 0.00 2132.00 871.40" xmlns="http://www.w3.org/2000/svg" xmlns:xlink="http://www.w3.org/1999/xlink">
<g id="graph0" class="graph" transform="scale(1 1) rotate(0) translate(4 867.4)">
<title>G</title>
<polygon fill="white" stroke="none" points="-4,4 -4,-867.4 2128,-867.4 2128,4 -4,4"/>
<g id="clust1" class="cluster"><title>cluster_0</title>
<polygon fill="lightgray" stroke="lightgrey" points="8,-8 8,-855.4 658,-855.4 658,-8 8,-8"/>
<text text-anchor="middle" x="333.013" y="-824.4" font-family="Times,serif" font-size="30.00">C:/Users/Usuario/git&#45;projects/txtToArray/index.html</text>
</g>
<g id="clust2" class="cluster"><title>cluster_1</title>
<polygon fill="lightgray" stroke="lightgrey" points="666,-358.6 666,-758.4 2116,-758.4 2116,-358.6 666,-358.6"/>
<text text-anchor="middle" x="970.178" y="-727.4" font-family="Times,serif" font-size="30.00">C:/Users/Usuario/git&#45;projects/txtToArray/main.js</text>
</g>
<!-- 0 -->
<g id="node1" class="node"><title>0</title>
<polygon fill="lightsalmon" stroke="black" points="546.959,-766.9 546.959,-802.9 643.041,-802.9 643.041,-766.9 546.959,-766.9"/>
<text text-anchor="middle" x="595" y="-780.8" font-family="Times,serif" font-size="14.00">«GLOBAL»</text>
</g>
<!-- 2 -->
<g id="node2" class="node"><title>2</title>
<polygon fill="pink" stroke="black" points="542.288,-617.1 542.288,-653.1 619.712,-653.1 619.712,-617.1 542.288,-617.1"/>
<text text-anchor="middle" x="581" y="-631" font-family="Times,serif" font-size="14.00">«ROOT»</text>
</g>
<!-- 0&#45;&gt;2 -->
<g id="edge1" class="edge"><title>0&#45;&gt;2</title>
<path fill="none" stroke="black" d="M592.202,-754.364C589.333,-724.069 584.967,-677.979 582.623,-653.234"/>
<polygon fill="black" stroke="black" points="592.235,-754.71 596.783,-760.306 593.367,-766.656 588.819,-761.06 592.235,-754.71"/>
</g>
<!-- 1 -->
<g id="node15" class="node"><title>1</title>
<polygon fill="lightyellow" stroke="black" points="1901.77,-585.1 1901.77,-685.1 2108.23,-685.1 2108.23,-585.1 1901.77,-585.1"/>
<text text-anchor="middle" x="2005" y="-668.5" font-family="Times,serif" font-size="14.00">«GLOBAL»</text>
<polyline fill="none" stroke="black" points="1901.77,-660.3 2108.23,-660.3 "/>
<text text-anchor="start" x="1909.77" y="-643.7" font-family="Times,serif" font-size="14.00">&#45;botonLeerTxt(leerTxt)</text>
<text text-anchor="start" x="1909.77" y="-626.9" font-family="Times,serif" font-size="14.00">&#45;botonOrdenarLista(ordenarLista)</text>
<text text-anchor="start" x="1909.77" y="-610.1" font-family="Times,serif" font-size="14.00">&#45;inputArchivo(file&#45;input)</text>
<text text-anchor="start" x="1909.77" y="-593.3" font-family="Times,serif" font-size="14.00">&#45;txtUrl(txtUrl)</text>
</g>
<!-- 0&#45;&gt;1 -->
<g id="edge14" class="edge"><title>0&#45;&gt;1</title>
<path fill="none" stroke="black" d="M657.664,-784.079C900.747,-784.598 1773.56,-784.79 1888.24,-761.213"/>
<polygon fill="black" stroke="black" points="1889.36,-764.533 1898,-758.4 1887.42,-757.807 1889.36,-764.533"/>
</g>
<!-- 3 -->
<g id="node3" class="node"><title>3</title>
<polygon fill="pink" stroke="black" points="534.511,-478.9 534.511,-514.9 613.489,-514.9 613.489,-478.9 534.511,-478.9"/>
<text text-anchor="middle" x="574" y="-492.8" font-family="Times,serif" font-size="14.00">«HTML»</text>
</g>
<!-- 2&#45;&gt;3 -->
<g id="edge2" class="edge"><title>2&#45;&gt;3</title>
<path fill="none" stroke="black" d="M579.481,-604.544C578.075,-577.185 576.033,-537.453 574.879,-515.01"/>
<polygon fill="black" stroke="black" points="579.497,-604.866 583.8,-610.653 580.113,-616.85 575.811,-611.063 579.497,-604.866"/>
</g>
<!-- 4 -->
<g id="node4" class="node"><title>4</title>
<polygon fill="pink" stroke="black" points="227.228,-346.3 227.228,-429.5 490.772,-429.5 490.772,-346.3 227.228,-346.3"/>
<text text-anchor="middle" x="359" y="-412.9" font-family="Times,serif" font-size="14.00">«HEAD»</text>
<polyline fill="none" stroke="black" points="227.228,-404.7 490.772,-404.7 "/>
<text text-anchor="start" x="235.228" y="-388.1" font-family="Times,serif" font-size="14.00">+link : link = https:stackpath.bootstrapcdn...</text>
<text text-anchor="start" x="235.228" y="-371.3" font-family="Times,serif" font-size="14.00">+meta : meta</text>
<text text-anchor="start" x="235.228" y="-354.5" font-family="Times,serif" font-size="14.00">+title : title</text>
</g>
<!-- 3&#45;&gt;4 -->
<g id="edge3" class="edge"><title>3&#45;&gt;4</title>
<path fill="none" stroke="black" d="M528.644,-473.327C503.167,-460.648 470.597,-444.439 440.819,-429.619"/>
<polygon fill="black" stroke="black" points="528.713,-473.362 535.867,-472.454 539.457,-478.709 532.303,-479.616 528.713,-473.362"/>
</g>
<!-- 5 -->
<g id="node5" class="node"><title>5</title>
<polygon fill="pink" stroke="black" points="497.644,-354.7 497.644,-421.1 650.356,-421.1 650.356,-354.7 497.644,-354.7"/>
<text text-anchor="middle" x="574" y="-404.5" font-family="Times,serif" font-size="14.00">«BODY»</text>
<polyline fill="none" stroke="black" points="497.644,-396.3 650.356,-396.3 "/>
<text text-anchor="start" x="505.644" y="-379.7" font-family="Times,serif" font-size="14.00">+script : script = main.js</text>
<text text-anchor="start" x="505.644" y="-362.9" font-family="Times,serif" font-size="14.00">+style : style</text>
</g>
<!-- 3&#45;&gt;5 -->
<g id="edge4" class="edge"><title>3&#45;&gt;5</title>
<path fill="none" stroke="black" d="M574,-466.281C574,-452.264 574,-435.494 574,-421.155"/>
<polygon fill="black" stroke="black" points="574,-466.709 578,-472.709 574,-478.709 570,-472.709 574,-466.709"/>
</g>
<!-- 6 -->
<g id="node6" class="node"><title>6</title>
<polygon fill="pink" stroke="black" points="541.903,-287.7 541.903,-337.3 606.097,-337.3 606.097,-287.7 541.903,-287.7"/>
<text text-anchor="middle" x="574" y="-320.7" font-family="Times,serif" font-size="14.00">«DIV»</text>
<polyline fill="none" stroke="black" points="541.903,-312.5 606.097,-312.5 "/>
<text text-anchor="start" x="549.903" y="-295.9" font-family="Times,serif" font-size="14.00">+br : br</text>
</g>
<!-- 5&#45;&gt;6 -->
<g id="edge5" class="edge"><title>5&#45;&gt;6</title>
<path fill="none" stroke="black" d="M574,-342.489C574,-340.825 574,-339.184 574,-337.578"/>
<polygon fill="black" stroke="black" points="574,-342.492 578,-348.492 574,-354.492 570,-348.492 574,-342.492"/>
</g>
<!-- 7 -->
<g id="node7" class="node"><title>7</title>
<polygon fill="pink" stroke="black" points="430.504,-242.7 430.504,-278.7 509.496,-278.7 509.496,-242.7 430.504,-242.7"/>
<text text-anchor="middle" x="470" y="-256.6" font-family="Times,serif" font-size="14.00">«FORM»</text>
</g>
<!-- 6&#45;&gt;7 -->
<g id="edge6" class="edge"><title>6&#45;&gt;7</title>
<path fill="none" stroke="black" d="M530.577,-290.707C522.249,-286.719 513.618,-282.586 505.573,-278.734"/>
<polygon fill="black" stroke="black" points="530.841,-290.833 537.98,-289.817 541.664,-296.016 534.525,-297.032 530.841,-290.833"/>
</g>
<!-- 13 -->
<g id="node13" class="node"><title>13</title>
<polygon fill="pink" stroke="black" points="543.903,-242.7 543.903,-278.7 608.097,-278.7 608.097,-242.7 543.903,-242.7"/>
<text text-anchor="middle" x="576" y="-256.6" font-family="Times,serif" font-size="14.00">«DIV»</text>
</g>
<!-- 6&#45;&gt;13 -->
<g id="edge12" class="edge"><title>6&#45;&gt;13</title>
<path fill="none" stroke="black" d="M575.298,-279.187C575.301,-279.1 575.305,-279.014 575.308,-278.928"/>
<polygon fill="black" stroke="black" points="575.447,-275.485 579.202,-281.641 574.965,-287.475 571.209,-281.32 575.447,-275.485"/>
</g>
<!-- 8 -->
<g id="node8" class="node"><title>8</title>
<polygon fill="pink" stroke="black" points="388.505,-167.3 388.505,-216.9 499.495,-216.9 499.495,-167.3 388.505,-167.3"/>
<text text-anchor="middle" x="444" y="-200.3" font-family="Times,serif" font-size="14.00">«DIV»</text>
<polyline fill="none" stroke="black" points="388.505,-192.1 499.495,-192.1 "/>
<text text-anchor="start" x="396.505" y="-175.5" font-family="Times,serif" font-size="14.00">+leerTxt : button</text>
</g>
<!-- 7&#45;&gt;8 -->
<g id="edge7" class="edge"><title>7&#45;&gt;8</title>
<path fill="none" stroke="black" d="M458.888,-231.235C457.032,-226.481 455.123,-221.593 453.318,-216.969"/>
<polygon fill="black" stroke="black" points="458.94,-231.37 464.848,-235.505 463.304,-242.549 457.396,-238.414 458.94,-231.37"/>
</g>
<!-- 9 -->
<g id="node9" class="node"><title>9</title>
<polygon fill="pink" stroke="black" points="326.168,-83.5 326.168,-133.1 441.832,-133.1 441.832,-83.5 326.168,-83.5"/>
<text text-anchor="middle" x="384" y="-116.5" font-family="Times,serif" font-size="14.00">«DIV»</text>
<polyline fill="none" stroke="black" points="326.168,-108.3 441.832,-108.3 "/>
<text text-anchor="start" x="334.168" y="-91.7" font-family="Times,serif" font-size="14.00">+file&#45;input : input</text>
</g>
<!-- 8&#45;&gt;9 -->
<g id="edge8" class="edge"><title>8&#45;&gt;9</title>
<path fill="none" stroke="black" d="M419.079,-157.124C413.191,-149.097 407.034,-140.703 401.551,-133.228"/>
<polygon fill="black" stroke="black" points="419.225,-157.324 425.999,-159.796 426.323,-167 419.548,-164.527 419.225,-157.324"/>
</g>
<!-- 11 -->
<g id="node11" class="node"><title>11</title>
<polygon fill="pink" stroke="black" points="449.053,-75.1 449.053,-141.5 556.947,-141.5 556.947,-75.1 449.053,-75.1"/>
<text text-anchor="middle" x="503" y="-124.9" font-family="Times,serif" font-size="14.00">«DIV»</text>
<polyline fill="none" stroke="black" points="449.053,-116.7 556.947,-116.7 "/>
<text text-anchor="start" x="457.053" y="-100.1" font-family="Times,serif" font-size="14.00">+txtURL : small</text>
<text text-anchor="start" x="457.053" y="-83.3" font-family="Times,serif" font-size="14.00">+txtUrl : input</text>
</g>
<!-- 8&#45;&gt;11 -->
<g id="edge10" class="edge"><title>8&#45;&gt;11</title>
<path fill="none" stroke="black" d="M468.632,-156.949C472.269,-151.907 476.008,-146.723 479.618,-141.718"/>
<polygon fill="black" stroke="black" points="468.403,-157.267 468.137,-164.473 461.383,-167 461.649,-159.794 468.403,-157.267"/>
</g>
<!-- 10 -->
<g id="node10" class="node"><title>10</title>
<polygon fill="pink" stroke="black" points="341.789,-16.5 341.789,-66.1 426.211,-66.1 426.211,-16.5 341.789,-16.5"/>
<text text-anchor="middle" x="384" y="-49.5" font-family="Times,serif" font-size="14.00">«LABEL»</text>
<polyline fill="none" stroke="black" points="341.789,-41.3 426.211,-41.3 "/>
<text text-anchor="start" x="349.789" y="-24.7" font-family="Times,serif" font-size="14.00">+h5 : h5</text>
</g>
<!-- 9&#45;&gt;10 -->
<g id="edge9" class="edge"><title>9&#45;&gt;10</title>
<path fill="none" stroke="black" d="M384,-71.2456C384,-69.5208 384,-67.8096 384,-66.1316"/>
<polygon fill="black" stroke="black" points="384,-71.4655 388,-77.4655 384,-83.4655 380,-77.4655 384,-71.4655"/>
</g>
<!-- 12 -->
<g id="node12" class="node"><title>12</title>
<polygon fill="pink" stroke="black" points="460.789,-16.5 460.789,-66.1 545.211,-66.1 545.211,-16.5 460.789,-16.5"/>
<text text-anchor="middle" x="503" y="-49.5" font-family="Times,serif" font-size="14.00">«LABEL»</text>
<polyline fill="none" stroke="black" points="460.789,-41.3 545.211,-41.3 "/>
<text text-anchor="start" x="468.789" y="-24.7" font-family="Times,serif" font-size="14.00">+h5 : h5</text>
</g>
<!-- 11&#45;&gt;12 -->
<g id="edge11" class="edge"><title>11&#45;&gt;12</title>
<path fill="none" stroke="black" d="M503,-66.3997C503,-66.3112 503,-66.2228 503,-66.1345"/>
<polygon fill="black" stroke="black" points="503,-62.8 507,-68.8 503,-74.8 499,-68.8 503,-62.8"/>
</g>
<!-- 14 -->
<g id="node14" class="node"><title>14</title>
<polygon fill="pink" stroke="black" points="506.345,-150.5 506.345,-233.7 647.655,-233.7 647.655,-150.5 506.345,-150.5"/>
<text text-anchor="middle" x="577" y="-217.1" font-family="Times,serif" font-size="14.00">«DIV»</text>
<polyline fill="none" stroke="black" points="506.345,-208.9 647.655,-208.9 "/>
<text text-anchor="start" x="514.345" y="-192.3" font-family="Times,serif" font-size="14.00">+nombre&#45;archivo : h5</text>
<text text-anchor="start" x="514.345" y="-175.5" font-family="Times,serif" font-size="14.00">+ordenarLista : button</text>
<text text-anchor="start" x="514.345" y="-158.7" font-family="Times,serif" font-size="14.00">+resultado : p</text>
</g>
<!-- 13&#45;&gt;14 -->
<g id="edge13" class="edge"><title>13&#45;&gt;14</title>
<path fill="none" stroke="black" d="M576.385,-234.029C576.387,-233.933 576.388,-233.838 576.39,-233.742"/>
<polygon fill="black" stroke="black" points="576.438,-230.55 580.347,-236.61 576.258,-242.549 572.348,-236.489 576.438,-230.55"/>
</g>
<!-- 15 -->
<g id="node16" class="node"><title>15</title>
<polygon fill="lightblue" stroke="black" points="1784.96,-614.3 1784.96,-655.9 1895.04,-655.9 1895.04,-614.3 1784.96,-614.3"/>
<text text-anchor="middle" x="1840" y="-639.3" font-family="Times,serif" font-size="14.00">«FUNCTION»</text>
<text text-anchor="middle" x="1840" y="-622.5" font-family="Times,serif" font-size="14.00"> (e)</text>
</g>
<!-- 16 -->
<g id="node17" class="node"><title>16</title>
<polygon fill="lightblue" stroke="black" points="1614.47,-564.3 1614.47,-705.9 1777.53,-705.9 1777.53,-564.3 1614.47,-564.3"/>
<text text-anchor="middle" x="1696" y="-689.3" font-family="Times,serif" font-size="14.00">«FUNCTION»</text>
<text text-anchor="middle" x="1696" y="-672.5" font-family="Times,serif" font-size="14.00"> ()</text>
<polyline fill="none" stroke="black" points="1614.47,-664.3 1777.53,-664.3 "/>
<text text-anchor="start" x="1622.47" y="-647.7" font-family="Times,serif" font-size="14.00">&#45;aux : variable = resultado</text>
<text text-anchor="start" x="1622.47" y="-630.9" font-family="Times,serif" font-size="14.00">&#45;i : number = 0</text>
<text text-anchor="start" x="1622.47" y="-614.1" font-family="Times,serif" font-size="14.00">&#45;j : number = 0</text>
<polyline fill="none" stroke="black" points="1614.47,-605.9 1777.53,-605.9 "/>
<text text-anchor="start" x="1622.47" y="-589.3" font-family="Times,serif" font-size="14.00">&#45;aux.i()</text>
<text text-anchor="start" x="1622.47" y="-572.5" font-family="Times,serif" font-size="14.00">&#45;aux.i.j()</text>
</g>
<!-- 17 -->
<g id="node18" class="node"><title>17</title>
<polygon fill="khaki" stroke="black" points="1694.71,-476.1 1694.71,-517.7 1843.29,-517.7 1843.29,-476.1 1694.71,-476.1"/>
<text text-anchor="middle" x="1769" y="-501.1" font-family="Times,serif" font-size="14.00">«BLOCK»</text>
<text text-anchor="middle" x="1769" y="-484.3" font-family="Times,serif" font-size="14.00"> AssignmentExpression</text>
</g>
<!-- 16&#45;&gt;17 -->
<g id="edge15" class="edge"><title>16&#45;&gt;17</title>
<path fill="none" stroke="black" d="M1739.28,-553.342C1746.34,-540.173 1753.05,-527.658 1758.3,-517.862"/>
<polygon fill="black" stroke="black" points="1739.24,-553.429 1739.93,-560.606 1733.57,-564.005 1732.88,-556.827 1739.24,-553.429"/>
</g>
<!-- 18 -->
<g id="node19" class="node"><title>18</title>
<polygon fill="khaki" stroke="black" points="1694.71,-367.1 1694.71,-408.7 1843.29,-408.7 1843.29,-367.1 1694.71,-367.1"/>
<text text-anchor="middle" x="1769" y="-392.1" font-family="Times,serif" font-size="14.00">«BLOCK»</text>
<text text-anchor="middle" x="1769" y="-375.3" font-family="Times,serif" font-size="14.00"> AssignmentExpression</text>
</g>
<!-- 17&#45;&gt;18 -->
<g id="edge16" class="edge"><title>17&#45;&gt;18</title>
<path fill="none" stroke="black" d="M1769,-463.877C1769,-446.075 1769,-424.469 1769,-409.032"/>
<polygon fill="black" stroke="black" points="1769,-464.025 1773,-470.025 1769,-476.025 1765,-470.025 1769,-464.025"/>
</g>
<!-- 19 -->
<g id="node20" class="node"><title>19</title>
<polygon fill="khaki" stroke="black" points="1362.31,-568.3 1362.31,-701.9 1607.69,-701.9 1607.69,-568.3 1362.31,-568.3"/>
<text text-anchor="middle" x="1485" y="-685.3" font-family="Times,serif" font-size="14.00">«FUNCTION&#45;EXPRESSION&#45;NAME»</text>
<text text-anchor="middle" x="1485" y="-668.5" font-family="Times,serif" font-size="14.00"> leerTxt(url,id)</text>
<polyline fill="none" stroke="black" points="1362.31,-660.3 1607.69,-660.3 "/>
<text text-anchor="start" x="1370.31" y="-643.7" font-family="Times,serif" font-size="14.00">&#45;data : variable = await</text>
<text text-anchor="start" x="1370.31" y="-626.9" font-family="Times,serif" font-size="14.00">&#45;innerHTML</text>
<text text-anchor="start" x="1370.31" y="-610.1" font-family="Times,serif" font-size="14.00">&#45;innerText : binaryexpression</text>
<text text-anchor="start" x="1370.31" y="-593.3" font-family="Times,serif" font-size="14.00">&#45;innerText : identifier = data</text>
<text text-anchor="start" x="1370.31" y="-576.5" font-family="Times,serif" font-size="14.00">&#45;response : variable = await</text>
</g>
<!-- 20 -->
<g id="node21" class="node"><title>20</title>
<polygon fill="khaki" stroke="black" points="1348.51,-476.1 1348.51,-517.7 1481.49,-517.7 1481.49,-476.1 1348.51,-476.1"/>
<text text-anchor="middle" x="1415" y="-501.1" font-family="Times,serif" font-size="14.00">«BLOCK»</text>
<text text-anchor="middle" x="1415" y="-484.3" font-family="Times,serif" font-size="14.00"> VariableDeclaration</text>
</g>
<!-- 19&#45;&gt;20 -->
<g id="edge17" class="edge"><title>19&#45;&gt;20</title>
<path fill="none" stroke="black" d="M1445.52,-557.29C1438.01,-542.666 1430.77,-528.587 1425.23,-517.811"/>
<polygon fill="black" stroke="black" points="1445.54,-557.322 1451.84,-560.83 1451.03,-567.995 1444.72,-564.487 1445.54,-557.322"/>
</g>
<!-- 21 -->
<g id="node22" class="node"><title>21</title>
<polygon fill="khaki" stroke="black" points="1488.62,-476.1 1488.62,-517.7 1575.38,-517.7 1575.38,-476.1 1488.62,-476.1"/>
<text text-anchor="middle" x="1532" y="-501.1" font-family="Times,serif" font-size="14.00">«CATCH»</text>
<text text-anchor="middle" x="1532" y="-484.3" font-family="Times,serif" font-size="14.00"> catch</text>
</g>
<!-- 19&#45;&gt;21 -->
<g id="edge18" class="edge"><title>19&#45;&gt;21</title>
<path fill="none" stroke="black" d="M1511.8,-556.439C1516.74,-542.121 1521.48,-528.378 1525.13,-517.811"/>
<polygon fill="black" stroke="black" points="1511.73,-556.651 1513.55,-563.628 1507.81,-567.995 1505.99,-561.018 1511.73,-556.651"/>
</g>
<!-- 22 -->
<g id="node23" class="node"><title>22</title>
<polygon fill="khaki" stroke="black" points="1582.48,-476.1 1582.48,-517.7 1687.52,-517.7 1687.52,-476.1 1582.48,-476.1"/>
<text text-anchor="middle" x="1635" y="-501.1" font-family="Times,serif" font-size="14.00">«BLOCK»</text>
<text text-anchor="middle" x="1635" y="-484.3" font-family="Times,serif" font-size="14.00"> CallExpression</text>
</g>
<!-- 19&#45;&gt;22 -->
<g id="edge19" class="edge"><title>19&#45;&gt;22</title>
<path fill="none" stroke="black" d="M1573.89,-559.578C1575.27,-558.314 1576.64,-557.054 1578,-555.8 1591.15,-543.635 1605.28,-529.29 1616.18,-517.922"/>
<polygon fill="black" stroke="black" points="1573.5,-559.926 1571.72,-566.913 1564.58,-567.955 1566.37,-560.968 1573.5,-559.926"/>
</g>
<!-- 23 -->
<g id="node24" class="node"><title>23</title>
<polygon fill="lightblue" stroke="black" points="1240.38,-581.1 1240.38,-689.1 1355.62,-689.1 1355.62,-581.1 1240.38,-581.1"/>
<text text-anchor="middle" x="1298" y="-672.5" font-family="Times,serif" font-size="14.00">«FUNCTION»</text>
<text text-anchor="middle" x="1298" y="-655.7" font-family="Times,serif" font-size="14.00"> leerArchivo(e)</text>
<polyline fill="none" stroke="black" points="1240.38,-647.5 1355.62,-647.5 "/>
<text text-anchor="start" x="1248.38" y="-630.9" font-family="Times,serif" font-size="14.00">&#45;archivo : object</text>
<text text-anchor="start" x="1248.38" y="-614.1" font-family="Times,serif" font-size="14.00">&#45;lector.onload = e</text>
<polyline fill="none" stroke="black" points="1240.38,-605.9 1355.62,-605.9 "/>
<text text-anchor="start" x="1248.38" y="-589.3" font-family="Times,serif" font-size="14.00">&#45;undefined()</text>
</g>
<!-- 24 -->
<g id="node25" class="node"><title>24</title>
<polygon fill="khaki" stroke="black" points="1039.2,-476.1 1039.2,-517.7 1152.8,-517.7 1152.8,-476.1 1039.2,-476.1"/>
<text text-anchor="middle" x="1096" y="-501.1" font-family="Times,serif" font-size="14.00">«BLOCK»</text>
<text text-anchor="middle" x="1096" y="-484.3" font-family="Times,serif" font-size="14.00"> ReturnStatement</text>
</g>
<!-- 23&#45;&gt;24 -->
<g id="edge20" class="edge"><title>23&#45;&gt;24</title>
<path fill="none" stroke="black" d="M1250.14,-572.927C1245.66,-569.444 1240.94,-566.336 1236,-563.8 1204.61,-547.676 1189.08,-570.516 1157,-555.8 1138.55,-547.337 1122.15,-530.994 1111.02,-517.824"/>
<polygon fill="black" stroke="black" points="1250.47,-573.213 1257.62,-574.121 1259.53,-581.074 1252.38,-580.166 1250.47,-573.213"/>
</g>
<!-- 25 -->
<g id="node26" class="node"><title>25</title>
<polygon fill="lightblue" stroke="black" points="1160.19,-438.5 1160.19,-555.3 1341.81,-555.3 1341.81,-438.5 1160.19,-438.5"/>
<text text-anchor="middle" x="1251" y="-538.7" font-family="Times,serif" font-size="14.00">«FUNCTION»</text>
<text text-anchor="middle" x="1251" y="-521.9" font-family="Times,serif" font-size="14.00"> lector.onload(e)</text>
<polyline fill="none" stroke="black" points="1160.19,-513.7 1341.81,-513.7 "/>
<text text-anchor="start" x="1168.19" y="-497.1" font-family="Times,serif" font-size="14.00">&#45;data : object</text>
<text text-anchor="start" x="1168.19" y="-480.3" font-family="Times,serif" font-size="14.00">&#45;innerHTML</text>
<text text-anchor="start" x="1168.19" y="-463.5" font-family="Times,serif" font-size="14.00">&#45;innerText : binaryexpression</text>
<text text-anchor="start" x="1168.19" y="-446.7" font-family="Times,serif" font-size="14.00">&#45;innerText : identifier = data</text>
</g>
<!-- 23&#45;&gt;25 -->
<g id="edge21" class="edge"><title>23&#45;&gt;25</title>
<path fill="none" stroke="black" d="M1275.72,-569.533C1274.11,-564.861 1272.49,-560.166 1270.89,-555.538"/>
<polygon fill="black" stroke="black" points="1275.78,-569.708 1281.52,-574.075 1279.69,-581.052 1273.96,-576.685 1275.78,-569.708"/>
</g>
<!-- 26 -->
<g id="node27" class="node"><title>26</title>
<polygon fill="lightblue" stroke="black" points="1122.96,-614.3 1122.96,-655.9 1233.04,-655.9 1233.04,-614.3 1122.96,-614.3"/>
<text text-anchor="middle" x="1178" y="-639.3" font-family="Times,serif" font-size="14.00">«FUNCTION»</text>
<text text-anchor="middle" x="1178" y="-622.5" font-family="Times,serif" font-size="14.00"> divToVar(id)</text>
</g>
<!-- 27 -->
<g id="node28" class="node"><title>27</title>
<polygon fill="lightblue" stroke="black" points="993.552,-614.3 993.552,-655.9 1116.45,-655.9 1116.45,-614.3 993.552,-614.3"/>
<text text-anchor="middle" x="1055" y="-639.3" font-family="Times,serif" font-size="14.00">«FUNCTION»</text>
<text text-anchor="middle" x="1055" y="-622.5" font-family="Times,serif" font-size="14.00"> ordenarLista(lista)</text>
</g>
<!-- 28 -->
<g id="node29" class="node"><title>28</title>
<polygon fill="lightblue" stroke="black" points="849.369,-601.9 849.369,-668.3 986.631,-668.3 986.631,-601.9 849.369,-601.9"/>
<text text-anchor="middle" x="918" y="-651.7" font-family="Times,serif" font-size="14.00">«FUNCTION»</text>
<text text-anchor="middle" x="918" y="-634.9" font-family="Times,serif" font-size="14.00"> arrayToDiv(array,id)</text>
<polyline fill="none" stroke="black" points="849.369,-626.7 986.631,-626.7 "/>
<text text-anchor="start" x="857.369" y="-610.1" font-family="Times,serif" font-size="14.00">&#45;innerText()</text>
</g>
<!-- 29 -->
<g id="node30" class="node"><title>29</title>
<polygon fill="lightblue" stroke="black" points="673.995,-614.3 673.995,-655.9 842.005,-655.9 842.005,-614.3 673.995,-614.3"/>
<text text-anchor="middle" x="758" y="-639.3" font-family="Times,serif" font-size="14.00">«FUNCTION»</text>
<text text-anchor="middle" x="758" y="-622.5" font-family="Times,serif" font-size="14.00"> capitalizeOnlyFirst(string)</text>
</g>
</g>
</svg>
